<svg width="16" height="15" viewBox="0 0 16 15" fill="none" xmlns="http://www.w3.org/2000/svg">
<g clip-path="url(#clip0_4_575)">
<path d="M15.3564 11.5718L12.3203 9.54711C11.9351 9.29223 11.4186 9.3761 11.1338 9.73982L10.2494 10.8769C10.1357 11.0268 9.92913 11.0702 9.76471 10.9789L9.59648 10.8862C9.03881 10.5822 8.34493 10.2038 6.94688 8.80521C5.54884 7.40667 5.16965 6.71226 4.86568 6.15562L4.77344 5.98739C4.68084 5.823 4.72349 5.61552 4.87341 5.50096L6.00973 4.61685C6.37331 4.33198 6.45729 3.81567 6.20271 3.43027L4.17801 0.394217C3.9171 0.00175572 3.39364 -0.116059 2.98973 0.126747L1.72016 0.889378C1.32125 1.12389 1.02859 1.5037 0.903542 1.94921C0.446374 3.61496 0.790297 6.48979 5.02518 10.7252C8.39393 14.0937 10.9018 14.9995 12.6256 14.9995C13.0223 15.0012 13.4174 14.9496 13.8004 14.8461C14.246 14.7212 14.6259 14.4285 14.8602 14.0294L15.6236 12.7606C15.8668 12.3566 15.749 11.8329 15.3564 11.5718ZM15.1929 12.5042L14.4313 13.7737C14.263 14.0617 13.9898 14.2735 13.6689 14.3646C12.1311 14.7868 9.44451 14.4371 5.37885 10.3715C1.3132 6.30583 0.963533 3.61947 1.38573 2.08147C1.477 1.76019 1.68902 1.48662 1.97738 1.31807L3.24694 0.556439C3.4222 0.450986 3.64939 0.502101 3.76261 0.672408L4.86246 2.32366L5.78558 3.7082C5.89613 3.87537 5.85981 4.09943 5.7021 4.22313L4.56552 5.10724C4.21963 5.37172 4.12086 5.85027 4.33381 6.23008L4.42406 6.39406C4.74353 6.97997 5.14071 7.70885 6.59074 9.15866C8.04078 10.6084 8.76944 11.0056 9.35508 11.3251L9.51929 11.4156C9.89907 11.6285 10.3777 11.5297 10.6421 11.1839L11.5262 10.0473C11.65 9.88965 11.8739 9.85336 12.0412 9.96379L15.077 11.9885C15.2474 12.1016 15.2985 12.3289 15.1929 12.5042Z" fill="#999999"/>
<path d="M9.24947 2.50131C11.5952 2.50392 13.4962 4.40491 13.4988 6.75069C13.4988 6.88874 13.6107 7.00064 13.7488 7.00064C13.8869 7.00064 13.9988 6.88874 13.9988 6.75069C13.9959 4.12892 11.8712 2.00427 9.24947 2.0014C9.11141 2.0014 8.99951 2.1133 8.99951 2.25136C8.99951 2.38941 9.11141 2.50131 9.24947 2.50131Z" fill="#999999"/>
<path d="M9.24947 4.00113C10.7673 4.00291 11.9973 5.23291 11.9991 6.75073C11.9991 6.88878 12.111 7.00068 12.249 7.00068C12.3871 7.00068 12.499 6.88878 12.499 6.75073C12.4969 4.95691 11.0433 3.50327 9.24947 3.50122C9.11141 3.50122 8.99951 3.61312 8.99951 3.75117C8.99951 3.88923 9.11141 4.00113 9.24947 4.00113Z" fill="#999999"/>
<path d="M9.24947 5.50094C9.93936 5.50176 10.4984 6.06084 10.4993 6.75077C10.4993 6.88882 10.6112 7.00072 10.7492 7.00072C10.8873 7.00072 10.9992 6.88882 10.9992 6.75077C10.9981 5.78488 10.2154 5.00212 9.24947 5.00104C9.11141 5.00104 8.99951 5.11294 8.99951 5.25099C8.99951 5.38905 9.11141 5.50094 9.24947 5.50094Z" fill="#999999"/>
</g>
<defs>
<clipPath id="clip0_4_575">
<rect width="15" height="15" fill="white" transform="translate(0.75)"/>
</clipPath>
</defs>
</svg>
