<svg width="16" height="15" viewBox="0 0 16 15" fill="none" xmlns="http://www.w3.org/2000/svg">
<g clip-path="url(#clip0_4_566)">
<path d="M13.9188 1.79236H2.58426C1.57247 1.79236 0.75 2.61483 0.75 3.62662V11.3734C0.75 12.3852 1.57247 13.2076 2.58426 13.2076H13.9157C14.9275 13.2076 15.75 12.3852 15.75 11.3734V3.62973C15.7531 2.61793 14.9306 1.79236 13.9188 1.79236ZM14.9151 11.3734C14.9151 11.9227 14.4682 12.3696 13.9188 12.3696H2.58426C2.03492 12.3696 1.58799 11.9227 1.58799 11.3734V3.62973C1.58799 3.08038 2.03492 2.63345 2.58426 2.63345H13.9157C14.4651 2.63345 14.912 3.08038 14.912 3.62973V11.3734H14.9151Z" fill="#999999"/>
<path d="M10.2101 7.40377L13.8786 4.11389C14.0493 3.9587 14.0648 3.69489 13.9096 3.52109C13.7544 3.35039 13.4906 3.33487 13.3168 3.49005L8.25786 8.03071L7.2709 7.14927C7.26779 7.14616 7.26469 7.14306 7.26469 7.13996C7.24297 7.11823 7.22124 7.09961 7.19641 7.08099L3.18027 3.48695C3.00647 3.33176 2.74265 3.34728 2.58747 3.52109C2.43229 3.69489 2.44781 3.9587 2.62161 4.11389L6.33359 7.4317L2.63713 10.8923C2.46953 11.0506 2.46022 11.3144 2.61851 11.4851C2.70231 11.572 2.81404 11.6185 2.92577 11.6185C3.02819 11.6185 3.13061 11.5813 3.21131 11.5068L6.96364 7.99657L7.98164 8.90594C8.06233 8.97733 8.16165 9.01147 8.26097 9.01147C8.36028 9.01147 8.4627 8.97422 8.5403 8.90284L9.58623 7.96553L13.3168 11.5099C13.3975 11.5875 13.5031 11.6247 13.6055 11.6247C13.7172 11.6247 13.8258 11.5813 13.9096 11.4944C14.0679 11.3268 14.0617 11.0599 13.8941 10.9016L10.2101 7.40377Z" fill="#999999"/>
</g>
<defs>
<clipPath id="clip0_4_566">
<rect width="15" height="15" fill="white" transform="translate(0.75)"/>
</clipPath>
</defs>
</svg>
