<svg width="16" height="15" viewBox="0 0 16 15" fill="none" xmlns="http://www.w3.org/2000/svg">
<path d="M8.23959 0C5.20827 0 2.74219 2.46609 2.74219 5.4974C2.74219 6.88992 3.61961 8.85738 5.35018 11.3452C6.6151 13.1638 7.85918 14.5711 7.9116 14.6301L8.23959 15L8.56769 14.6301C8.61999 14.5711 9.86407 13.1638 11.1291 11.3452C12.8596 8.85738 13.7371 6.88992 13.7371 5.4974C13.7371 2.46609 11.2709 0 8.23959 0V0ZM10.414 10.8373C9.55898 12.0673 8.69483 13.1259 8.23959 13.666C7.78548 13.1274 6.92455 12.0728 6.07013 10.8444C4.4667 8.53935 3.61915 6.69033 3.61915 5.4974C3.61915 2.94971 5.6919 0.876961 8.23959 0.876961C10.7874 0.876961 12.86 2.94971 12.86 5.4974C12.86 6.68907 12.0142 8.53558 10.414 10.8373Z" fill="#999999"/>
<path d="M8.23963 2.0318C6.45058 2.0318 4.99512 3.48726 4.99512 5.27631C4.99512 7.06537 6.45058 8.52094 8.23963 8.52094C10.0288 8.52094 11.4843 7.06537 11.4843 5.27631C11.4843 3.48726 10.0288 2.0318 8.23963 2.0318V2.0318ZM8.23963 7.64398C6.9342 7.64398 5.87208 6.58186 5.87208 5.27631C5.87208 3.97089 6.9342 2.90876 8.23963 2.90876C9.54517 2.90876 10.6073 3.97089 10.6073 5.27631C10.6073 6.58186 9.54517 7.64398 8.23963 7.64398Z" fill="#999999"/>
</svg>
